#!OML:ASF H:\Terrain\Patient Classification 1\Takeo\Monday\TakeoMonday.ASF
:FULLY-SPECIFIED
:DEGREES
290
root 10.0197 17.275 -0.175243 -11.7522 -35.5264 6.37416
lowerback 7.09523 -0.294698 -0.907171
upperback 4.29704 -0.488485 2.05483
thorax 0.481559 -0.307049 2.65757
lowerneck -11.204 8.1087 3.25747
upperneck -4.45855 10.3229 -7.21968
head 1.07664 4.9638 -2.37313
rclavicle -5.33737e-014 -1.59028e-015
rhumerus -15.4535 25.5015 -73.7878
rradius 122.305
rwrist -6.46325
rhand -27.6641 26.4564
rfingers 7.12502
rthumb -1.06153 -3.52073
lclavicle -5.33737e-014 -1.59028e-015
lhumerus -32.1455 -14.5157 96.6084
lradius 114.383
lwrist 22.5476
lhand -27.3887 2.36237
lfingers 7.12502
lthumb -0.79555 32.3406
rfemur 1.30414 -2.29914 13.3436
rtibia 34.4036
rfoot -23.716 -15.5414
rtoes -11.6108
lfemur -10.7884 15.4652 -22.2522
ltibia 38.6205
lfoot -15.5879 17.3683
ltoes -0.914258
291
root 10.0207 17.2679 -0.16963 -11.1709 -34.9956 5.46655
lowerback 7.29441 -0.199099 -0.316926
upperback 4.26069 -0.324304 2.04131
thorax 0.320895 -0.212192 2.30191
lowerneck -10.6963 7.79539 0.444273
upperneck -5.17797 10.1867 -4.00855
head 0.381307 5.0019 -0.943927
rclavicle -4.83047e-014 9.54166e-015
rhumerus -13.6639 25.5911 -73.0072
rradius 121.855
rwrist -6.00083
rhand -27.142 26.2146
rfingers 7.12502
rthumb -0.55721 -3.76441
lclavicle -4.83047e-014 9.54166e-015
lhumerus -32.1182 -14.6929 96.723
lradius 114.334
lwrist 22.6573
lhand -26.621 3.12878
lfingers 7.12502
lthumb -0.0540275 33.1085
rfemur 1.65102 -2.46266 14.1671
rtibia 33.9254
rfoot -23.4236 -16.0779
rtoes -11.4331
lfemur -11.1074 15.3464 -21.6229
ltibia 38.9072
lfoot -15.1754 17.3392
ltoes -2.06681
292
root 10.0248 17.2682 -0.159822 -10.5261 -34.4463 4.37853
lowerback 7.53263 -0.0680356 0.388483
upperback 4.18954 -0.101057 2.16605
thorax 0.105241 -0.08839 2.01941
lowerneck -10.415 7.40393 -1.04283
upperneck -5.50622 9.82765 -2.4936
head 0.0618174 4.87217 -0.292905
rclavicle 4.90998e-014 0
rhumerus -11.6131 25.5204 -71.9824
rradius 121.335
rwrist -5.59337
rhand -27.253 25.2806
rfingers 7.12502
rthumb -0.664458 -4.69807
lclavicle 4.90998e-014 0
lhumerus -32.1415 -15.0045 96.9452
lradius 114.296
lwrist 22.7057
lhand -26.5957 3.41034
lfingers 7.12502
lthumb -0.029609 33.3901
rfemur 1.98361 -2.71142 15.1151
rtibia 33.5438
rfoot -23.4565 -16.4107
rtoes -10.2475
lfemur -11.2847 15.1076 -20.7624
ltibia 39.1089
lfoot -15.1225 16.8431
ltoes -3.2016
293
root 10.0233 17.2724 -0.151396 -10.2139 -33.6019 3.97917
lowerback 7.67401 -0.0726139 0.248423
upperback 4.14378 -0.111291 2.18145
thorax -0.0193335 -0.094634 2.11559
lowerneck -10.9839 7.09665 0.227333
upperneck -4.90873 9.29521 -4.0401
head 0.488334 4.55525 -0.938569
rclavicle -2.64384e-014 1.59028e-015
rhumerus -9.08746 25.5332 -70.7979
rradius 120.828
rwrist -5.8994
rhand -27.2279 24.629
rfingers 7.12502
rthumb -0.64017 -5.34979
lclavicle -2.64384e-014 1.59028e-015
lhumerus -32.1336 -14.9449 96.9256
lradius 114.311
lwrist 23.0443
lhand -26.7026 3.04766
lfingers 7.12502
lthumb -0.132872 33.0274
rfemur 2.21936 -3.21012 15.38
rtibia 33.295
rfoot -23.6135 -16.6201
rtoes -9.22734
lfemur -11.4792 14.8032 -20.5665
ltibia 39.1785
lfoot -15.0854 16.278
ltoes -3.68804
294
root 10.013 17.2803 -0.141832 -10.228 -32.6293 4.47883
lowerback 7.46317 -0.0535612 -0.815762
upperback 4.18164 -0.154553 2.00242
thorax 0.140662 -0.131159 2.53217
lowerneck -11.3815 6.78801 0.407514
upperneck -4.8696 8.86487 -4.30036
head 0.581835 4.32828 -1.05131
rclavicle -1.03766e-013 1.43125e-014
rhumerus -6.72602 25.432 -69.5804
rradius 120.336
rwrist -6.97328
rhand -25.6107 24.5543
rfingers 7.12502
rthumb 0.921788 -5.42349
lclavicle -1.03766e-013 1.43125e-014
lhumerus -31.9566 -14.7981 96.9154
lradius 114.269
lwrist 23.493
lhand -26.4759 2.5254
lfingers 7.12502
lthumb 0.0861504 32.5051
rfemur 2.26608 -3.72146 14.8238
rtibia 33.0953
rfoot -23.5765 -16.9649
rtoes -9.06316
lfemur -11.8284 14.4307 -21.2755
ltibia 39.1694
lfoot -14.8788 15.9769
ltoes -4.54294
